    <svg
      width="36"
      height="35"
      viewBox="0 0 279 260"
      fill="none"
      xmlns="http://www.w3.org/2000/svg"
    >
      {/* Define the diffuse rainbow gradient */}
      <defs>
        <linearGradient
          id="customRainbowGradient"
          x1="0%"
          y1="100%"
          x2="100%"
          y2="0%"
          gradientUnits="userSpaceOnUse"
        >
          <stop offset="0%" stopColor="#e83122" /> {/* Red Start */}
          <stop offset="20%" stopColor="#e83122" /> {/* Red End */}
          <stop offset="20%" stopColor="#faa42e" /> {/* Orange Start */}
          <stop offset="35%" stopColor="#faa42e" /> {/* Orange End */}
          <stop offset="35%" stopColor="#faeb36" /> {/* Yellow Start */}
          <stop offset="50%" stopColor="#faeb36" /> {/* Yellow End */}
          <stop offset="50%" stopColor="#82ca20" /> {/* Green Start */}
          <stop offset="65%" stopColor="#82ca20" /> {/* Green End */}
          <stop offset="65%" stopColor="#487de7" /> {/* Blue Start */}
          <stop offset="80%" stopColor="#487de7" /> {/* Blue End */}
          <stop offset="80%" stopColor="#4b369d" /> {/* Purple Start */}
          <stop offset="100%" stopColor="#4b369d" /> {/* Purple End */}
        </linearGradient>
      </defs>

      {/* Apply the gradient to all berry paths */}
      <path
        d="M64.8691 126.676C59.4872 128.698 53.7866 129.896 47.8797 130.196C46.9046 130.252 45.9482 130.271 44.9918 130.271C37.9035 130.271 31.1152 128.941 24.8145 126.507C9.70029 135.719 -0.0320805 152.7 0.924279 171.573C2.33069 199.002 25.8459 220.177 53.2803 218.791C62.4876 218.323 71.0011 215.365 78.1831 210.61C76.1954 194.583 79.2333 178.388 87.1279 163.934C89.0594 160.395 91.2721 157.044 93.6912 153.899C93.0911 153.599 92.491 153.318 91.9097 153C80.4709 146.765 71.2073 137.666 64.8504 126.657L64.8691 126.676Z"
        fill="url(#customRainbowGradient)"
      />
      <path
        d="M273.093 96.7757C266.83 85.0553 256.366 76.4616 243.633 72.6047C242.321 72.2115 240.989 71.8745 239.658 71.575C234.482 80.0564 227.131 87.0212 218.13 91.8142C210.892 95.6711 203.072 97.8616 195.122 98.3671C194.221 107.654 191.465 116.734 186.852 125.159C186.177 126.395 185.464 127.593 184.714 128.773C204.085 136.149 220.418 150.716 228.875 169.944C237.051 170 245.171 168.015 252.597 164.065C264.336 157.812 272.943 147.364 276.806 134.652C280.669 121.939 279.356 108.477 273.093 96.757V96.7757Z"
        fill="url(#customRainbowGradient)"
      />
      <path
        d="M192.59 72.0243C193.696 75.7689 194.447 79.5508 194.915 83.3515C200.485 82.9022 205.979 81.3295 211.061 78.6334C220.812 73.4472 227.938 64.7786 231.145 54.2191C234.351 43.6595 233.264 32.5007 228.05 22.7837C220.625 8.87273 206.298 0.953049 191.502 0.953049C184.939 0.953049 178.282 2.50702 172.094 5.80221C162.962 10.6701 156.398 18.5149 152.967 27.5018C154.992 28.3818 156.999 29.3366 158.949 30.4038C175.357 39.3532 187.283 54.1254 192.553 72.043L192.59 72.0243Z"
        fill="url(#customRainbowGradient)"
      />
      <path
        d="M64.0441 58.2257C66.8007 53.1893 70.1198 48.5648 73.9078 44.4458C73.5327 44.0714 73.1764 43.6782 72.7639 43.3225C65.0942 36.4138 55.3244 32.6693 45.067 32.6693C44.3544 32.6693 43.6418 32.6693 42.9105 32.7254C31.8654 33.2871 21.7018 38.0989 14.2947 46.2994C6.88758 54.4999 3.1184 65.0782 3.68096 76.1059C4.8436 98.8727 24.3271 116.435 47.1297 115.274C51.1802 115.068 55.0994 114.281 58.831 112.971C58.6623 112.447 58.4935 111.941 58.3247 111.417C53.0554 93.518 55.0994 74.6268 64.0441 58.2632V58.2257Z"
        fill="url(#customRainbowGradient)"
      />
      <path
        d="M145.166 158.729C138.64 160.639 131.983 161.594 125.364 161.594C119.682 161.594 114.019 160.882 108.505 159.497C105.393 163.017 102.617 166.892 100.311 171.123C92.2661 185.839 90.4284 202.802 95.1727 218.885C99.7482 234.462 110.474 246.894 125.364 253.878C140.065 260.786 157.355 261.891 174.007 257.004C190.49 252.174 204.048 242.064 212.205 228.527C220.418 214.878 222.387 198.702 217.774 182.956C213.086 167.042 202.079 153.88 186.739 145.904C182.951 143.938 178.995 142.365 174.926 141.167C166.75 149.33 156.605 155.396 145.203 158.729H145.166Z"
        fill="url(#customRainbowGradient)"
      />
      <path
        d="M152.704 41.8995C144.228 37.275 134.927 34.9347 125.533 34.9347C120.151 34.9347 114.75 35.7023 109.443 37.2563C94.8728 41.5251 82.8339 51.2047 75.558 64.5165C68.2822 77.8284 66.632 93.1622 70.9075 107.71C75.183 122.257 84.8779 134.277 98.2106 141.542C111.543 148.806 126.901 150.454 141.472 146.185C156.042 141.916 168.081 132.236 175.357 118.925C182.633 105.613 184.283 90.2789 180.008 75.7314C175.732 61.1839 166.037 49.1639 152.704 41.8995Z"
        fill="url(#customRainbowGradient)"
      />
    </svg>